<svg width="328" height="212" viewBox="0 0 328 212" fill="none" xmlns="http://www.w3.org/2000/svg">
<rect x="0.850098" width="327" height="211.402" rx="8" fill="#F2F2F2"/>
<path d="M143.547 111.182L143.503 111.226C142.907 109.923 142.532 108.443 142.377 106.809C142.532 108.421 142.951 109.879 143.547 111.182Z" fill="#888888"/>
<path d="M157.725 92.1237C160.628 92.1237 162.981 89.7706 162.981 86.8679C162.981 83.9652 160.628 81.6121 157.725 81.6121C154.822 81.6121 152.469 83.9652 152.469 86.8679C152.469 89.7706 154.822 92.1237 157.725 92.1237Z" fill="#888888"/>
<path d="M173.603 73.6179H155.097C147.059 73.6179 142.267 78.41 142.267 86.4483V104.954C142.267 107.361 142.686 109.459 143.503 111.226C145.402 115.422 149.466 117.785 155.097 117.785H173.603C181.641 117.785 186.433 112.993 186.433 104.954V99.8971V86.4483C186.433 78.41 181.641 73.6179 173.603 73.6179ZM182.834 96.8054C181.111 95.3258 178.329 95.3258 176.606 96.8054L167.42 104.689C165.697 106.169 162.915 106.169 161.192 104.689L160.441 104.071C158.873 102.702 156.378 102.569 154.611 103.762L146.352 109.305C145.866 108.068 145.579 106.633 145.579 104.954V86.4483C145.579 80.2208 148.87 76.9304 155.097 76.9304H173.603C179.83 76.9304 183.121 80.2208 183.121 86.4483V97.0483L182.834 96.8054Z" fill="#888888"/>
<path d="M136.865 141.201L136.157 139.185H133.354L132.646 141.201H131.723L134.321 134.155H135.19L137.787 141.201H136.865ZM134.741 135.225L133.613 138.438H135.898L134.77 135.225H134.741ZM140.287 141.289C138.994 141.289 138.115 140.254 138.115 138.662C138.115 137.07 138.989 136.035 140.268 136.035C140.995 136.035 141.581 136.392 141.884 136.948H141.904V134.155H142.753V141.201H141.943V140.342H141.928C141.601 140.928 141.02 141.289 140.287 141.289ZM140.449 136.782C139.55 136.782 138.984 137.515 138.984 138.662C138.984 139.815 139.55 140.542 140.449 140.542C141.323 140.542 141.909 139.8 141.909 138.662C141.909 137.529 141.323 136.782 140.449 136.782ZM145.825 141.289C144.531 141.289 143.652 140.254 143.652 138.662C143.652 137.07 144.526 136.035 145.805 136.035C146.533 136.035 147.119 136.392 147.421 136.948H147.441V134.155H148.29V141.201H147.48V140.342H147.465C147.138 140.928 146.557 141.289 145.825 141.289ZM145.986 136.782C145.087 136.782 144.521 137.515 144.521 138.662C144.521 139.815 145.087 140.542 145.986 140.542C146.86 140.542 147.446 139.8 147.446 138.662C147.446 137.529 146.86 136.782 145.986 136.782ZM151.909 143.101C151.806 143.101 151.635 143.091 151.542 143.071V142.358C151.635 142.378 151.767 142.383 151.874 142.383C152.348 142.383 152.612 142.153 152.807 141.563L152.924 141.206L151.049 136.123H151.957L153.364 140.352H153.378L154.785 136.123H155.678L153.681 141.558C153.246 142.744 152.827 143.101 151.909 143.101ZM158.31 141.289C156.904 141.289 155.956 140.278 155.956 138.662C155.956 137.041 156.904 136.035 158.31 136.035C159.711 136.035 160.659 137.041 160.659 138.662C160.659 140.278 159.711 141.289 158.31 141.289ZM158.31 140.542C159.208 140.542 159.794 139.858 159.794 138.662C159.794 137.466 159.208 136.782 158.31 136.782C157.411 136.782 156.821 137.466 156.821 138.662C156.821 139.858 157.411 140.542 158.31 140.542ZM165.688 136.123V141.201H164.882V140.376H164.863C164.56 140.962 164.033 141.289 163.251 141.289C162.143 141.289 161.494 140.571 161.494 139.419V136.123H162.343V139.268C162.343 140.093 162.729 140.537 163.515 140.537C164.34 140.537 164.838 139.971 164.838 139.107V136.123H165.688ZM166.791 141.201V136.123H167.592V136.953H167.612C167.778 136.392 168.246 136.035 168.842 136.035C168.989 136.035 169.116 136.06 169.184 136.069V136.895C169.116 136.87 168.935 136.846 168.73 136.846C168.071 136.846 167.641 137.319 167.641 138.037V141.201H166.791ZM171.972 141.201V136.123H172.822V141.201H171.972ZM172.397 135.269C172.109 135.269 171.87 135.029 171.87 134.741C171.87 134.448 172.109 134.214 172.397 134.214C172.69 134.214 172.929 134.448 172.929 134.741C172.929 135.029 172.69 135.269 172.397 135.269ZM173.969 141.201V136.123H174.77V136.934H174.789C175.029 136.397 175.546 136.035 176.23 136.035C176.923 136.035 177.436 136.387 177.656 137.002H177.675C177.958 136.397 178.554 136.035 179.267 136.035C180.273 136.035 180.922 136.69 180.922 137.695V141.201H180.073V137.891C180.073 137.197 179.687 136.787 179.018 136.787C178.344 136.787 177.87 137.285 177.87 137.974V141.201H177.021V137.798C177.021 137.188 176.611 136.787 175.981 136.787C175.307 136.787 174.819 137.315 174.819 138.018V141.201H173.969ZM183.681 140.566C184.482 140.566 185.097 140.005 185.097 139.273V138.857L183.74 138.941C183.056 138.984 182.665 139.287 182.665 139.766C182.665 140.249 183.071 140.566 183.681 140.566ZM183.491 141.289C182.48 141.289 181.801 140.679 181.801 139.766C181.801 138.897 182.47 138.35 183.642 138.281L185.097 138.198V137.774C185.097 137.153 184.687 136.782 183.984 136.782C183.329 136.782 182.919 137.09 182.812 137.588H181.992C182.05 136.709 182.802 136.035 184.003 136.035C185.195 136.035 185.947 136.68 185.947 137.691V141.201H185.141V140.327H185.121C184.819 140.908 184.174 141.289 183.491 141.289ZM189.091 140.493C189.975 140.493 190.566 139.761 190.566 138.643C190.566 137.524 189.975 136.782 189.091 136.782C188.217 136.782 187.646 137.505 187.646 138.643C187.646 139.78 188.217 140.493 189.091 140.493ZM189.12 143.115C188.002 143.115 187.119 142.485 186.977 141.621H187.851C188.017 142.085 188.52 142.393 189.155 142.393C190.034 142.393 190.566 141.885 190.566 141.128V140.327H190.546C190.234 140.879 189.633 141.24 188.92 141.24C187.626 141.24 186.777 140.22 186.777 138.643C186.777 137.051 187.626 136.035 188.94 136.035C189.658 136.035 190.253 136.387 190.59 136.978H190.605V136.123H191.415V141.099C191.415 142.31 190.522 143.115 189.12 143.115ZM194.56 136.773C193.764 136.773 193.207 137.383 193.154 138.228H195.912C195.893 137.378 195.361 136.773 194.56 136.773ZM195.893 139.746H196.728C196.581 140.635 195.722 141.289 194.614 141.289C193.159 141.289 192.275 140.278 192.275 138.682C192.275 137.105 193.173 136.035 194.575 136.035C195.947 136.035 196.791 137.031 196.791 138.569V138.892H193.149V138.941C193.149 139.912 193.72 140.552 194.633 140.552C195.278 140.552 195.751 140.225 195.893 139.746Z" fill="#888888"/>
</svg>
