<svg width="19" height="19" viewBox="0 0 19 19" fill="none" xmlns="http://www.w3.org/2000/svg">
    <path d="M9.05078 10.2762C6.67328 10.2762 4.73828 8.34115 4.73828 5.96365C4.73828 3.58615 6.67328 1.65115 9.05078 1.65115C11.4283 1.65115 13.3633 3.58615 13.3633 5.96365C13.3633 8.34115 11.4283 10.2762 9.05078 10.2762ZM9.05078 2.77615C7.29578 2.77615 5.86328 4.20865 5.86328 5.96365C5.86328 7.71865 7.29578 9.15115 9.05078 9.15115C10.8058 9.15115 12.2383 7.71865 12.2383 5.96365C12.2383 4.20865 10.8058 2.77615 9.05078 2.77615Z" fill="#525252"/>
    <path d="M2.6084 17.7762C2.3009 17.7762 2.0459 17.5212 2.0459 17.2137C2.0459 14.0112 5.1884 11.4012 9.0509 11.4012C9.8084 11.4012 10.5509 11.4987 11.2709 11.7012C11.5709 11.7837 11.7434 12.0912 11.6609 12.3912C11.5784 12.6912 11.2709 12.8637 10.9709 12.7812C10.3559 12.6087 9.7109 12.5262 9.0509 12.5262C5.8109 12.5262 3.1709 14.6262 3.1709 17.2137C3.1709 17.5212 2.9159 17.7762 2.6084 17.7762Z" fill="#525252"/>
    <path d="M13.5508 17.7762C12.6658 17.7762 11.8258 17.4462 11.1733 16.8537C10.9108 16.6287 10.6783 16.3512 10.4983 16.0437C10.1683 15.5037 9.98828 14.8662 9.98828 14.2137C9.98828 13.2762 10.3483 12.3987 10.9933 11.7312C11.6683 11.0337 12.5758 10.6512 13.5508 10.6512C14.5708 10.6512 15.5383 11.0862 16.1983 11.8362C16.7833 12.4887 17.1133 13.3287 17.1133 14.2137C17.1133 14.4987 17.0758 14.7836 17.0008 15.0536C16.9258 15.3911 16.7833 15.7437 16.5883 16.0512C15.9658 17.1162 14.7958 17.7762 13.5508 17.7762ZM13.5508 11.7762C12.8833 11.7762 12.2683 12.0386 11.8033 12.5111C11.3608 12.9686 11.1133 13.5687 11.1133 14.2137C11.1133 14.6562 11.2333 15.0911 11.4658 15.4661C11.5858 15.6761 11.7433 15.8636 11.9233 16.0211C12.3733 16.4336 12.9508 16.6587 13.5508 16.6587C14.3983 16.6587 15.2008 16.2087 15.6358 15.4812C15.7633 15.2712 15.8608 15.0312 15.9133 14.7987C15.9658 14.6037 15.9883 14.4162 15.9883 14.2212C15.9883 13.6212 15.7633 13.0437 15.3583 12.5937C14.9083 12.0687 14.2483 11.7762 13.5508 11.7762Z" fill="#525252"/>
    <path d="M14.6761 14.7611H12.4336C12.1261 14.7611 11.8711 14.5061 11.8711 14.1986C11.8711 13.8911 12.1261 13.6361 12.4336 13.6361H14.6761C14.9836 13.6361 15.2386 13.8911 15.2386 14.1986C15.2386 14.5061 14.9836 14.7611 14.6761 14.7611Z" fill="#525252"/>
    <path d="M13.5508 15.9087C13.2433 15.9087 12.9883 15.6537 12.9883 15.3462V13.1037C12.9883 12.7962 13.2433 12.5412 13.5508 12.5412C13.8583 12.5412 14.1133 12.7962 14.1133 13.1037V15.3462C14.1133 15.6612 13.8583 15.9087 13.5508 15.9087Z" fill="#525252"/>
</svg>
