<svg width="31" height="31" viewBox="0 0 31 31" fill="none" xmlns="http://www.w3.org/2000/svg">
    <rect x="0.695312" y="0.769562" width="30" height="30" rx="15" fill="#FF5656"/>
    <path d="M22.4038 14.6279L18.5121 12.9529L17.6454 12.5862C17.5121 12.5196 17.3954 12.3446 17.3954 12.1946V9.64456C17.3954 8.84456 16.8038 7.89456 16.0871 7.5279C15.8371 7.4029 15.5371 7.4029 15.2871 7.5279C14.5788 7.89456 13.9871 8.8529 13.9871 9.6529V12.2029C13.9871 12.3529 13.8704 12.5279 13.7371 12.5946L8.98711 14.6362C8.46211 14.8529 8.03711 15.5112 8.03711 16.0779V17.1779C8.03711 17.8862 8.57044 18.2362 9.22878 17.9529L13.4038 16.1529C13.7288 16.0112 13.9954 16.1862 13.9954 16.5446V17.4696V18.9696C13.9954 19.1612 13.8871 19.4362 13.7538 19.5696L11.8204 21.5112C11.6204 21.7112 11.5288 22.1029 11.6204 22.3862L11.9954 23.5196C12.1454 24.0112 12.7038 24.2446 13.1621 24.0112L15.1454 22.3446C15.4454 22.0862 15.9371 22.0862 16.2371 22.3446L18.2204 24.0112C18.6788 24.2362 19.2371 24.0112 19.4038 23.5196L19.7788 22.3862C19.8704 22.1112 19.7788 21.7112 19.5788 21.5112L17.6454 19.5696C17.5038 19.4362 17.3954 19.1612 17.3954 18.9696V16.5446C17.3954 16.1862 17.6538 16.0196 17.9871 16.1529L22.1621 17.9529C22.8204 18.2362 23.3538 17.8862 23.3538 17.1779V16.0779C23.3538 15.5112 22.9288 14.8529 22.4038 14.6279Z" fill="#F9F9F9"/>
</svg>
