<svg width="14" height="14" viewBox="0 0 14 14" fill="none" xmlns="http://www.w3.org/2000/svg">
    <path d="M7.15006 13.0249C3.93798 13.0249 1.32715 10.414 1.32715 7.20194C1.32715 3.98986 3.93798 1.37903 7.15006 1.37903C10.3621 1.37903 12.973 3.98986 12.973 7.20194C12.973 10.414 10.3621 13.0249 7.15006 13.0249ZM7.15006 2.19153C4.38756 2.19153 2.13965 4.43944 2.13965 7.20194C2.13965 9.96444 4.38756 12.2124 7.15006 12.2124C9.91256 12.2124 12.1605 9.96444 12.1605 7.20194C12.1605 4.43944 9.91256 2.19153 7.15006 2.19153Z" fill="#888888"/>
    <path d="M7.14999 8.83236C7.04707 8.83236 6.94415 8.79444 6.8629 8.71319L4.95082 6.80111C4.79374 6.64403 4.79374 6.38403 4.95082 6.22694C5.1079 6.06986 5.3679 6.06986 5.52499 6.22694L7.14999 7.85194L8.77499 6.22694C8.93207 6.06986 9.19207 6.06986 9.34915 6.22694C9.50624 6.38403 9.50624 6.64403 9.34915 6.80111L7.43707 8.71319C7.35582 8.79444 7.2529 8.83236 7.14999 8.83236Z" fill="#888888"/>
</svg>
