<svg width="13" height="13" viewBox="0 0 13 13" fill="none" xmlns="http://www.w3.org/2000/svg">
    <path d="M4.8501 3.375C4.6451 3.375 4.4751 3.205 4.4751 3V1.5C4.4751 1.295 4.6451 1.125 4.8501 1.125C5.0551 1.125 5.2251 1.295 5.2251 1.5V3C5.2251 3.205 5.0551 3.375 4.8501 3.375Z" fill="#888888"/>
    <path d="M8.8501 3.375C8.6451 3.375 8.4751 3.205 8.4751 3V1.5C8.4751 1.295 8.6451 1.125 8.8501 1.125C9.0551 1.125 9.2251 1.295 9.2251 1.5V3C9.2251 3.205 9.0551 3.375 8.8501 3.375Z" fill="#888888"/>
    <path d="M5.1001 7.75003C5.0351 7.75003 4.9701 7.73504 4.9101 7.71004C4.8451 7.68504 4.7951 7.65003 4.7451 7.60503C4.6551 7.51003 4.6001 7.38503 4.6001 7.25003C4.6001 7.18503 4.6151 7.12003 4.6401 7.06003C4.6651 7.00003 4.7001 6.94504 4.7451 6.89504C4.7951 6.85004 4.8451 6.81503 4.9101 6.79003C5.0901 6.71503 5.3151 6.75504 5.4551 6.89504C5.5451 6.99004 5.6001 7.12003 5.6001 7.25003C5.6001 7.28003 5.5951 7.31504 5.5901 7.35004C5.5851 7.38004 5.5751 7.41004 5.5601 7.44004C5.5501 7.47004 5.5351 7.50003 5.5151 7.53003C5.5001 7.55503 5.4751 7.58003 5.4551 7.60503C5.3601 7.69503 5.2301 7.75003 5.1001 7.75003Z" fill="#888888"/>
    <path d="M6.8501 7.74994C6.7851 7.74994 6.7201 7.73494 6.6601 7.70994C6.5951 7.68494 6.5451 7.64993 6.4951 7.60493C6.4051 7.50993 6.3501 7.38494 6.3501 7.24994C6.3501 7.18494 6.3651 7.11993 6.3901 7.05993C6.4151 6.99993 6.4501 6.94494 6.4951 6.89494C6.5451 6.84994 6.5951 6.81493 6.6601 6.78993C6.8401 6.70993 7.0651 6.75494 7.2051 6.89494C7.2951 6.98994 7.3501 7.11994 7.3501 7.24994C7.3501 7.27994 7.3451 7.31494 7.3401 7.34994C7.3351 7.37994 7.3251 7.40994 7.3101 7.43994C7.3001 7.46994 7.2851 7.49994 7.2651 7.52994C7.2501 7.55494 7.2251 7.57993 7.2051 7.60493C7.1101 7.69493 6.9801 7.74994 6.8501 7.74994Z" fill="#888888"/>
    <path d="M8.6001 7.74994C8.5351 7.74994 8.4701 7.73494 8.4101 7.70994C8.3451 7.68494 8.2951 7.64993 8.2451 7.60493C8.2251 7.57993 8.2051 7.55494 8.1851 7.52994C8.1651 7.49994 8.1501 7.46994 8.1401 7.43994C8.1251 7.40994 8.1151 7.37994 8.1101 7.34994C8.1051 7.31494 8.1001 7.27994 8.1001 7.24994C8.1001 7.11994 8.1551 6.98994 8.2451 6.89494C8.2951 6.84994 8.3451 6.81493 8.4101 6.78993C8.5951 6.70993 8.8151 6.75494 8.9551 6.89494C9.0451 6.98994 9.1001 7.11994 9.1001 7.24994C9.1001 7.27994 9.0951 7.31494 9.0901 7.34994C9.0851 7.37994 9.0751 7.40994 9.0601 7.43994C9.0501 7.46994 9.0351 7.49994 9.0151 7.52994C9.0001 7.55494 8.9751 7.57993 8.9551 7.60493C8.8601 7.69493 8.7301 7.74994 8.6001 7.74994Z" fill="#888888"/>
    <path d="M5.1001 9.50009C5.0351 9.50009 4.9701 9.4851 4.9101 9.4601C4.8501 9.4351 4.7951 9.40009 4.7451 9.35509C4.6551 9.26009 4.6001 9.13009 4.6001 9.00009C4.6001 8.93509 4.6151 8.87009 4.6401 8.81009C4.6651 8.74509 4.7001 8.6901 4.7451 8.6451C4.9301 8.4601 5.2701 8.4601 5.4551 8.6451C5.5451 8.7401 5.6001 8.87009 5.6001 9.00009C5.6001 9.13009 5.5451 9.26009 5.4551 9.35509C5.3601 9.44509 5.2301 9.50009 5.1001 9.50009Z" fill="#888888"/>
    <path d="M6.8501 9.50009C6.7201 9.50009 6.5901 9.44509 6.4951 9.35509C6.4051 9.26009 6.3501 9.13009 6.3501 9.00009C6.3501 8.93509 6.3651 8.87009 6.3901 8.81009C6.4151 8.74509 6.4501 8.6901 6.4951 8.6451C6.6801 8.4601 7.0201 8.4601 7.2051 8.6451C7.2501 8.6901 7.2851 8.74509 7.3101 8.81009C7.3351 8.87009 7.3501 8.93509 7.3501 9.00009C7.3501 9.13009 7.2951 9.26009 7.2051 9.35509C7.1101 9.44509 6.9801 9.50009 6.8501 9.50009Z" fill="#888888"/>
    <path d="M8.6001 9.49996C8.4701 9.49996 8.3401 9.44495 8.2451 9.35495C8.2001 9.30995 8.1651 9.25496 8.1401 9.18996C8.1151 9.12996 8.1001 9.06496 8.1001 8.99996C8.1001 8.93496 8.1151 8.86995 8.1401 8.80995C8.1651 8.74495 8.2001 8.68996 8.2451 8.64496C8.3601 8.52996 8.5351 8.47495 8.6951 8.50995C8.7301 8.51495 8.7601 8.52495 8.7901 8.53995C8.8201 8.54995 8.8501 8.56496 8.8801 8.58496C8.9051 8.59996 8.9301 8.62496 8.9551 8.64496C9.0451 8.73996 9.1001 8.86996 9.1001 8.99996C9.1001 9.12996 9.0451 9.25995 8.9551 9.35495C8.8601 9.44495 8.7301 9.49996 8.6001 9.49996Z" fill="#888888"/>
    <path d="M11.1001 5.41992H2.6001C2.3951 5.41992 2.2251 5.24992 2.2251 5.04492C2.2251 4.83992 2.3951 4.66992 2.6001 4.66992H11.1001C11.3051 4.66992 11.4751 4.83992 11.4751 5.04492C11.4751 5.24992 11.3051 5.41992 11.1001 5.41992Z" fill="#888888"/>
    <path d="M8.8501 11.875H4.8501C3.0251 11.875 1.9751 10.825 1.9751 9V4.75C1.9751 2.925 3.0251 1.875 4.8501 1.875H8.8501C10.6751 1.875 11.7251 2.925 11.7251 4.75V9C11.7251 10.825 10.6751 11.875 8.8501 11.875ZM4.8501 2.625C3.4201 2.625 2.7251 3.32 2.7251 4.75V9C2.7251 10.43 3.4201 11.125 4.8501 11.125H8.8501C10.2801 11.125 10.9751 10.43 10.9751 9V4.75C10.9751 3.32 10.2801 2.625 8.8501 2.625H4.8501Z" fill="#888888"/>
</svg>
