<svg width="35" height="35" viewBox="0 0 35 35" fill="none" xmlns="http://www.w3.org/2000/svg">
    <path d="M9.99174 25.3022C5.7986 21.1091 5.7986 14.2926 9.99174 10.0994C14.1849 5.9063 21.0014 5.9063 25.1945 10.0994C29.3877 14.2926 29.3877 21.1091 25.1945 25.3022C21.0014 29.4954 14.1849 29.4954 9.99174 25.3022ZM24.1339 11.1601C20.5276 7.55386 14.6586 7.55386 11.0524 11.1601C7.44616 14.7663 7.44616 20.6353 11.0524 24.2416C14.6586 27.8478 20.5276 27.8478 24.1339 24.2416C27.7401 20.6353 27.7401 14.7664 24.1339 11.1601Z" fill="#F9F9F9"/>
    <path d="M19.8913 21.0599L14.2344 15.403C13.9445 15.1131 13.9445 14.6323 14.2344 14.3423C14.5244 14.0524 15.0052 14.0524 15.2951 14.3423L20.952 19.9992C21.2419 20.2891 21.2419 20.7699 20.952 21.0599C20.662 21.3498 20.1812 21.3498 19.8913 21.0599Z" fill="#F9F9F9"/>
    <path d="M14.2343 21.0599C13.9444 20.7699 13.9444 20.2891 14.2343 19.9992L19.8912 14.3423C20.1811 14.0524 20.6619 14.0524 20.9518 14.3423C21.2418 14.6323 21.2418 15.1131 20.9518 15.403L15.295 21.0599C15.0051 21.3498 14.5242 21.3498 14.2343 21.0599Z" fill="#F9F9F9"/>
</svg>
