<svg width="34" height="34" viewBox="0 0 34 34" fill="none" xmlns="http://www.w3.org/2000/svg">
<rect x="0.687988" y="1" width="32" height="32" rx="8" fill="#F9F9F9"/>
<path d="M20.3253 21.6767L12.0111 13.3625C11.7271 13.0784 11.7271 12.6073 12.0111 12.3232C12.2952 12.0392 12.7663 12.0392 13.0504 12.3232L21.3646 20.6374C21.6487 20.9215 21.6487 21.3927 21.3646 21.6767C21.0805 21.9608 20.6094 21.9608 20.3253 21.6767Z" fill="#525252"/>
<path d="M12.0114 21.6767C11.7273 21.3927 11.7273 20.9215 12.0114 20.6374L20.3256 12.3232C20.6096 12.0392 21.0808 12.0392 21.3649 12.3232C21.6489 12.6073 21.6489 13.0784 21.3649 13.3625L13.0506 21.6767C12.7666 21.9608 12.2954 21.9608 12.0114 21.6767Z" fill="#525252"/>
</svg>
