<svg width="23" height="22" viewBox="0 0 23 22" fill="none" xmlns="http://www.w3.org/2000/svg">
    <path d="M11.6012 20.9092C10.9687 20.9092 10.3729 20.5883 9.95124 20.0292L8.57624 18.1958C8.54874 18.1592 8.43874 18.1133 8.3929 18.1042H7.93457C4.11207 18.1042 1.74707 17.0683 1.74707 11.9167V7.33334C1.74707 3.28167 3.8829 1.14584 7.93457 1.14584H15.2679C19.3196 1.14584 21.4554 3.28167 21.4554 7.33334V11.9167C21.4554 15.9683 19.3196 18.1042 15.2679 18.1042H14.8096C14.7362 18.1042 14.6721 18.1408 14.6262 18.1958L13.2512 20.0292C12.8296 20.5883 12.2337 20.9092 11.6012 20.9092ZM7.93457 2.52084C4.6529 2.52084 3.12207 4.05167 3.12207 7.33334V11.9167C3.12207 16.06 4.5429 16.7292 7.93457 16.7292H8.3929C8.8604 16.7292 9.39207 16.995 9.67624 17.3708L11.0512 19.2042C11.3721 19.6258 11.8304 19.6258 12.1512 19.2042L13.5262 17.3708C13.8287 16.9675 14.3054 16.7292 14.8096 16.7292H15.2679C18.5496 16.7292 20.0804 15.1983 20.0804 11.9167V7.33334C20.0804 4.05167 18.5496 2.52084 15.2679 2.52084H7.93457Z" fill="#888888"/>
    <path d="M11.6012 11C11.0879 11 10.6846 10.5875 10.6846 10.0833C10.6846 9.57916 11.0971 9.16666 11.6012 9.16666C12.1054 9.16666 12.5179 9.57916 12.5179 10.0833C12.5179 10.5875 12.1146 11 11.6012 11Z" fill="#888888"/>
    <path d="M15.268 11C14.7547 11 14.3513 10.5875 14.3513 10.0833C14.3513 9.57916 14.7638 9.16666 15.268 9.16666C15.7722 9.16666 16.1847 9.57916 16.1847 10.0833C16.1847 10.5875 15.7813 11 15.268 11Z" fill="#888888"/>
    <path d="M7.93473 11C7.4214 11 7.01807 10.5875 7.01807 10.0833C7.01807 9.57916 7.43057 9.16666 7.93473 9.16666C8.4389 9.16666 8.8514 9.57916 8.8514 10.0833C8.8514 10.5875 8.44807 11 7.93473 11Z" fill="#888888"/>
</svg>
