<svg width="21" height="20" viewBox="0 0 21 20" fill="none" xmlns="http://www.w3.org/2000/svg">
    <path d="M18.8837 4.75833V12.7417C18.8837 15.0417 17.0171 16.9083 14.7171 16.9083H6.38373C6.00039 16.9083 5.63373 16.8583 5.27539 16.7583C4.75873 16.6167 4.59206 15.9583 4.97539 15.575L13.8337 6.71666C14.0171 6.53333 14.2921 6.49166 14.5504 6.54166C14.8171 6.59166 15.1087 6.51666 15.3171 6.31666L17.4587 4.16666C18.2421 3.38333 18.8837 3.64166 18.8837 4.75833Z" fill="white"/>
    <path d="M12.7511 6.13332L4.02611 14.8583C3.62611 15.2583 2.95944 15.1583 2.69277 14.6583C2.38444 14.0917 2.21777 13.4333 2.21777 12.7417V4.75832C2.21777 3.64165 2.85944 3.38332 3.64277 4.16665L5.79277 6.32499C6.11777 6.64165 6.65111 6.64165 6.97611 6.32499L9.95944 3.33332C10.2844 3.00832 10.8178 3.00832 11.1428 3.33332L12.7594 4.94999C13.0761 5.27499 13.0761 5.80832 12.7511 6.13332Z" fill="white"/>
</svg>
