<svg width="16" height="17" viewBox="0 0 16 17" fill="none" xmlns="http://www.w3.org/2000/svg">
    <path d="M14.6714 4.62942H10.6714" stroke="#525252" stroke-width="1.5" stroke-miterlimit="10" stroke-linecap="round" stroke-linejoin="round"/>
    <path d="M4.00505 4.62942H1.33838" stroke="#525252" stroke-width="1.5" stroke-miterlimit="10" stroke-linecap="round" stroke-linejoin="round"/>
    <path d="M6.67171 6.96275C7.96038 6.96275 9.00505 5.91808 9.00505 4.62941C9.00505 3.34075 7.96038 2.29608 6.67171 2.29608C5.38305 2.29608 4.33838 3.34075 4.33838 4.62941C4.33838 5.91808 5.38305 6.96275 6.67171 6.96275Z" stroke="#525252" stroke-width="1.5" stroke-miterlimit="10" stroke-linecap="round" stroke-linejoin="round"/>
    <path d="M14.6715 11.9627H12.0049" stroke="#525252" stroke-width="1.5" stroke-miterlimit="10" stroke-linecap="round" stroke-linejoin="round"/>
    <path d="M5.33838 11.9627H1.33838" stroke="#525252" stroke-width="1.5" stroke-miterlimit="10" stroke-linecap="round" stroke-linejoin="round"/>
    <path d="M9.33822 14.2961C10.6269 14.2961 11.6715 13.2514 11.6715 11.9628C11.6715 10.6741 10.6269 9.62942 9.33822 9.62942C8.04955 9.62942 7.00488 10.6741 7.00488 11.9628C7.00488 13.2514 8.04955 14.2961 9.33822 14.2961Z" stroke="#525252" stroke-width="1.5" stroke-miterlimit="10" stroke-linecap="round" stroke-linejoin="round"/>
</svg>
