<svg width="31" height="31" viewBox="0 0 31 31" fill="none" xmlns="http://www.w3.org/2000/svg">
    <rect x="0.695312" y="0.769562" width="30" height="30" rx="15" fill="#77D36F"/>
    <path d="M15.6951 7.43623C13.5118 7.43623 11.7368 9.21123 11.7368 11.3946C11.7368 13.5362 13.4118 15.2696 15.5951 15.3446C15.6618 15.3362 15.7285 15.3362 15.7785 15.3446C15.7951 15.3446 15.8035 15.3446 15.8201 15.3446C15.8285 15.3446 15.8285 15.3446 15.8368 15.3446C17.9701 15.2696 19.6451 13.5362 19.6535 11.3946C19.6535 9.21123 17.8785 7.43623 15.6951 7.43623Z" fill="#F9F9F9"/>
    <path d="M19.9286 17.5612C17.6036 16.0112 13.8119 16.0112 11.4703 17.5612C10.4119 18.2696 9.82861 19.2279 9.82861 20.2529C9.82861 21.2779 10.4119 22.2279 11.4619 22.9279C12.6286 23.7112 14.1619 24.1029 15.6953 24.1029C17.2286 24.1029 18.7619 23.7112 19.9286 22.9279C20.9786 22.2196 21.5619 21.2696 21.5619 20.2362C21.5536 19.2112 20.9786 18.2612 19.9286 17.5612Z" fill="#F9F9F9"/>
</svg>
