<svg width="16" height="16" viewBox="0 0 16 16" fill="none" xmlns="http://www.w3.org/2000/svg">
    <path d="M8.05029 14.7188C4.34404 14.7188 1.33154 11.7063 1.33154 8C1.33154 4.29375 4.34404 1.28125 8.05029 1.28125C11.7565 1.28125 14.769 4.29375 14.769 8C14.769 11.7063 11.7565 14.7188 8.05029 14.7188ZM8.05029 2.21875C4.86279 2.21875 2.26904 4.8125 2.26904 8C2.26904 11.1875 4.86279 13.7812 8.05029 13.7812C11.2378 13.7812 13.8315 11.1875 13.8315 8C13.8315 4.8125 11.2378 2.21875 8.05029 2.21875Z" fill="#3FABF9"/>
    <path d="M6.1752 14.0938H5.5502C5.29395 14.0938 5.08145 13.8813 5.08145 13.625C5.08145 13.3687 5.28145 13.1625 5.5377 13.1562C4.55645 9.80625 4.55645 6.19375 5.5377 2.84375C5.28145 2.8375 5.08145 2.63125 5.08145 2.375C5.08145 2.11875 5.29395 1.90625 5.5502 1.90625H6.1752C6.3252 1.90625 6.46895 1.98125 6.55645 2.1C6.64395 2.225 6.66895 2.38125 6.61895 2.525C5.44395 6.05625 5.44395 9.94375 6.61895 13.4813C6.66895 13.625 6.64395 13.7812 6.55645 13.9062C6.46895 14.0188 6.3252 14.0938 6.1752 14.0938Z" fill="#3FABF9"/>
    <path d="M9.9253 14.0938C9.8753 14.0938 9.8253 14.0875 9.7753 14.0688C9.53155 13.9875 9.39405 13.7188 9.48155 13.475C10.6565 9.94376 10.6565 6.05626 9.48155 2.51876C9.4003 2.27501 9.53155 2.00626 9.7753 1.92501C10.0253 1.84376 10.2878 1.97501 10.369 2.21876C11.6128 5.94376 11.6128 10.0438 10.369 13.7625C10.3065 13.9688 10.119 14.0938 9.9253 14.0938Z" fill="#3FABF9"/>
    <path d="M8.05029 11.25C6.30654 11.25 4.56904 11.0062 2.89404 10.5125C2.88779 10.7625 2.68154 10.9687 2.42529 10.9687C2.16904 10.9687 1.95654 10.7562 1.95654 10.5V9.875C1.95654 9.725 2.03154 9.58125 2.15029 9.49375C2.27529 9.40625 2.43154 9.38125 2.57529 9.43125C6.10654 10.6062 10.0003 10.6062 13.5315 9.43125C13.6753 9.38125 13.8315 9.40625 13.9565 9.49375C14.0815 9.58125 14.1503 9.725 14.1503 9.875V10.5C14.1503 10.7562 13.9378 10.9687 13.6815 10.9687C13.4253 10.9687 13.219 10.7687 13.2128 10.5125C11.5315 11.0062 9.79404 11.25 8.05029 11.25Z" fill="#3FABF9"/>
    <path d="M13.6754 6.59376C13.6254 6.59376 13.5754 6.58751 13.5254 6.56876C9.99415 5.39376 6.1004 5.39376 2.56915 6.56876C2.31915 6.65001 2.05665 6.51876 1.9754 6.27501C1.9004 6.02501 2.03165 5.76251 2.2754 5.68126C6.0004 4.43751 10.1004 4.43751 13.8192 5.68126C14.0629 5.76251 14.2004 6.03126 14.1129 6.27501C14.0567 6.46876 13.8692 6.59376 13.6754 6.59376Z" fill="#3FABF9"/>
</svg>
