<svg width="23" height="22" viewBox="0 0 23 22" fill="none" xmlns="http://www.w3.org/2000/svg">
    <path d="M11.8503 19.8457C11.5661 19.8457 11.2911 19.8091 11.0619 19.7266C7.56026 18.5257 1.99609 14.2632 1.99609 7.96572C1.99609 4.75739 4.59026 2.15405 7.78026 2.15405C9.32943 2.15405 10.7778 2.75905 11.8503 3.84072C12.9228 2.75905 14.3711 2.15405 15.9203 2.15405C19.1103 2.15405 21.7044 4.76655 21.7044 7.96572C21.7044 14.2724 16.1403 18.5257 12.6386 19.7266C12.4094 19.8091 12.1344 19.8457 11.8503 19.8457ZM7.78026 3.52905C5.35109 3.52905 3.37109 5.51822 3.37109 7.96572C3.37109 14.2266 9.39359 17.7099 11.5111 18.4341C11.6761 18.4891 12.0336 18.4891 12.1986 18.4341C14.3069 17.7099 20.3386 14.2357 20.3386 7.96572C20.3386 5.51822 18.3586 3.52905 15.9294 3.52905C14.5361 3.52905 13.2436 4.17989 12.4094 5.30739C12.1528 5.65572 11.5661 5.65572 11.3094 5.30739C10.4569 4.17072 9.17359 3.52905 7.78026 3.52905Z" fill="#FF6868"/>
</svg>
