<svg width="25" height="25" viewBox="0 0 25 25" fill="none" xmlns="http://www.w3.org/2000/svg">
<path d="M20.4399 6.91973L14.6799 2.88973C13.1099 1.78973 10.6999 1.84973 9.18989 3.01973L4.17989 6.92973C3.17989 7.70973 2.38989 9.30973 2.38989 10.5697V17.4697C2.38989 20.0197 4.45989 22.0997 7.00989 22.0997H17.7899C20.3399 22.0997 22.4099 20.0297 22.4099 17.4797V10.6997C22.4099 9.34973 21.5399 7.68973 20.4399 6.91973ZM13.1499 18.0997C13.1499 18.5097 12.8099 18.8497 12.3999 18.8497C11.9899 18.8497 11.6499 18.5097 11.6499 18.0997V15.0997C11.6499 14.6897 11.9899 14.3497 12.3999 14.3497C12.8099 14.3497 13.1499 14.6897 13.1499 15.0997V18.0997Z" fill="#3FABF9"/>
</svg>
