<svg width="21" height="21" viewBox="0 0 21 21" fill="none" xmlns="http://www.w3.org/2000/svg">
<path d="M18.4399 4.91973L12.6799 0.88973C11.1099 -0.21027 8.69989 -0.15027 7.18989 1.01973L2.17989 4.92973C1.17989 5.70973 0.389893 7.30973 0.389893 8.56973V15.4697C0.389893 18.0197 2.45989 20.0997 5.00989 20.0997H15.7899C18.3399 20.0997 20.4099 18.0297 20.4099 15.4797V8.69973C20.4099 7.34973 19.5399 5.68973 18.4399 4.91973ZM11.1499 16.0997C11.1499 16.5097 10.8099 16.8497 10.3999 16.8497C9.98989 16.8497 9.64989 16.5097 9.64989 16.0997V13.0997C9.64989 12.6897 9.98989 12.3497 10.3999 12.3497C10.8099 12.3497 11.1499 12.6897 11.1499 13.0997V16.0997Z" fill="#525252"/>
</svg>
