<svg width="19" height="19" viewBox="0 0 19 19" fill="none" xmlns="http://www.w3.org/2000/svg">
    <path d="M12.6928 2.21362H6.40779C3.67779 2.21362 2.05029 3.84112 2.05029 6.57112V12.8486C2.05029 15.5861 3.67779 17.2136 6.40779 17.2136H12.6853C15.4153 17.2136 17.0428 15.5861 17.0428 12.8561V6.57112C17.0503 3.84112 15.4228 2.21362 12.6928 2.21362ZM9.55029 12.6236C7.94529 12.6236 6.64029 11.3186 6.64029 9.71362C6.64029 8.10862 7.94529 6.80362 9.55029 6.80362C11.1553 6.80362 12.4603 8.10862 12.4603 9.71362C12.4603 11.3186 11.1553 12.6236 9.55029 12.6236ZM13.9903 5.87362C13.9528 5.96362 13.9003 6.04612 13.8328 6.12112C13.7578 6.18862 13.6753 6.24112 13.5853 6.27862C13.4953 6.31612 13.3978 6.33862 13.3003 6.33862C13.0978 6.33862 12.9103 6.26362 12.7678 6.12112C12.7003 6.04612 12.6478 5.96362 12.6103 5.87362C12.5728 5.78362 12.5503 5.68612 12.5503 5.58862C12.5503 5.49112 12.5728 5.39362 12.6103 5.30362C12.6478 5.20612 12.7003 5.13112 12.7678 5.05612C12.9403 4.88362 13.2028 4.80112 13.4428 4.85362C13.4953 4.86112 13.5403 4.87612 13.5853 4.89862C13.6303 4.91362 13.6753 4.93612 13.7203 4.96612C13.7578 4.98862 13.7953 5.02612 13.8328 5.05612C13.9003 5.13112 13.9528 5.20612 13.9903 5.30362C14.0278 5.39362 14.0503 5.49112 14.0503 5.58862C14.0503 5.68612 14.0278 5.78362 13.9903 5.87362Z" fill="#888888"/>
</svg>
