<svg width="25" height="25" viewBox="0 0 25 25" fill="none" xmlns="http://www.w3.org/2000/svg">
<path d="M20.7798 21.2297C20.5798 21.2297 20.3898 21.1497 20.2498 21.0097L13.8698 14.6297C13.5798 14.3397 13.5798 13.8597 13.8698 13.5697L21.5999 5.83974C21.7899 5.64974 22.0798 5.57974 22.3398 5.64974C22.5998 5.72974 22.7998 5.93974 22.8598 6.19974C23.0498 7.04974 23.1498 7.99974 23.1498 9.09974V15.0997C23.1498 17.8697 22.5698 19.7397 21.3098 21.0097C21.1698 21.1497 20.9598 21.1797 20.7798 21.2297ZM15.4598 14.0997L20.7199 19.3597C21.3499 18.3897 21.6498 17.0097 21.6498 15.0997V9.09974C21.6498 8.68974 21.6398 8.30974 21.6098 7.94974L15.4598 14.0997Z" fill="#525252"/>
<path d="M6.66989 22.5797C6.60989 22.5797 6.55991 22.5697 6.49991 22.5597C3.18991 21.7997 1.6499 19.4297 1.6499 15.0997V9.09973C1.6499 3.66973 3.9699 1.34973 9.3999 1.34973H15.3999C19.7299 1.34973 22.0999 2.88974 22.8599 6.19974C22.9199 6.44974 22.8399 6.71973 22.6599 6.89973L7.19989 22.3597C7.05989 22.4997 6.86989 22.5797 6.66989 22.5797ZM9.3999 2.84973C4.7899 2.84973 3.1499 4.48973 3.1499 9.09973V15.0997C3.1499 18.5697 4.10991 20.3097 6.43991 20.9997L21.2899 6.14973C20.6099 3.81973 18.8599 2.85973 15.3899 2.85973H9.3999V2.84973Z" fill="#525252"/>
<path d="M15.3998 22.8497H9.39979C8.29979 22.8497 7.35979 22.7597 6.49979 22.5597C6.22979 22.4997 6.01978 22.2997 5.94978 22.0397C5.86978 21.7797 5.94978 21.4997 6.13978 21.2997L13.8698 13.5697C14.1598 13.2797 14.6398 13.2797 14.9298 13.5697L21.3098 19.9497C21.4498 20.0897 21.5298 20.2797 21.5298 20.4797C21.5298 20.6797 21.4498 20.8697 21.3098 21.0097C20.0398 22.2697 18.1698 22.8497 15.3998 22.8497ZM8.24979 21.3097C8.60979 21.3397 8.98979 21.3497 9.39979 21.3497H15.3998C17.3198 21.3497 18.6898 21.0497 19.6598 20.4197L14.3998 15.1597L8.24979 21.3097Z" fill="#525252"/>
<path d="M9.51984 13.4097C8.88984 13.4097 8.25983 13.1797 7.75983 12.7097C6.16983 11.1997 5.52986 9.53972 5.90986 7.91972C6.28986 6.25972 7.73984 5.13971 9.51984 5.13971C11.2998 5.13971 12.7499 6.25972 13.1299 7.91972C13.4999 9.54972 12.8598 11.1997 11.2698 12.7097C10.7798 13.1697 10.1498 13.4097 9.51984 13.4097ZM7.36985 8.24971C7.04985 9.60971 7.96984 10.8297 8.79984 11.6197C9.20984 12.0097 9.83984 12.0097 10.2398 11.6197C11.0598 10.8397 11.9798 9.61971 11.6698 8.24971C11.3998 7.05971 10.3398 6.62971 9.51984 6.62971C8.69984 6.62971 7.64985 7.05971 7.36985 8.24971Z" fill="#525252"/>
<path d="M9.5498 9.58972C8.9998 9.58972 8.5498 9.13972 8.5498 8.58972C8.5498 8.03972 8.9898 7.58972 9.5498 7.58972H9.55981C10.1098 7.58972 10.5598 8.03972 10.5598 8.58972C10.5598 9.13972 10.0998 9.58972 9.5498 9.58972Z" fill="#525252"/>
</svg>
