<svg width="9" height="9" viewBox="0 0 9 9" fill="none" xmlns="http://www.w3.org/2000/svg">
    <path d="M4.55025 5.51078C3.84025 5.51078 3.26025 4.93411 3.26025 4.22078C3.26025 3.50745 3.84025 2.93411 4.55025 2.93411C5.26025 2.93411 5.84025 3.51078 5.84025 4.22411C5.84025 4.93745 5.26025 5.51078 4.55025 5.51078ZM4.55025 3.43411C4.11692 3.43411 3.76025 3.78745 3.76025 4.22411C3.76025 4.66078 4.11359 5.01411 4.55025 5.01411C4.98692 5.01411 5.34025 4.66078 5.34025 4.22411C5.34025 3.78745 4.98359 3.43411 4.55025 3.43411Z" fill="#888888"/>
    <path d="M4.55035 8.37411C4.05702 8.37411 3.56035 8.18744 3.17368 7.81744C2.19035 6.87078 1.10369 5.36078 1.51369 3.56411C1.88369 1.93411 3.30702 1.20411 4.55035 1.20411C4.55035 1.20411 4.55035 1.20411 4.55369 1.20411C5.79702 1.20411 7.22035 1.93411 7.59035 3.56744C7.99702 5.36411 6.91035 6.87078 5.92702 7.81744C5.54035 8.18744 5.04369 8.37411 4.55035 8.37411ZM4.55035 1.70411C3.58035 1.70411 2.33369 2.22078 2.00369 3.67411C1.64369 5.24411 2.63035 6.59744 3.52368 7.45411C4.10035 8.01078 5.00369 8.01078 5.58035 7.45411C6.47035 6.59744 7.45702 5.24411 7.10368 3.67411C6.77035 2.22078 5.52035 1.70411 4.55035 1.70411Z" fill="#888888"/>
</svg>
