<svg width="17" height="16" viewBox="0 0 17 16" fill="none" xmlns="http://www.w3.org/2000/svg">
    <path d="M8.04899 15.2066C7.58899 15.2066 7.15566 14.9733 6.84899 14.5666L5.84899 13.2333C5.82899 13.2066 5.74899 13.1733 5.71566 13.1666H5.38232C2.60232 13.1666 0.882324 12.4133 0.882324 8.66665V5.33331C0.882324 2.38665 2.43566 0.833313 5.38232 0.833313H10.7157C13.6623 0.833313 15.2157 2.38665 15.2157 5.33331V8.66665C15.2157 11.6133 13.6623 13.1666 10.7157 13.1666H10.3823C10.329 13.1666 10.2823 13.1933 10.249 13.2333L9.24899 14.5666C8.94232 14.9733 8.50899 15.2066 8.04899 15.2066ZM5.38232 1.83331C2.99566 1.83331 1.88232 2.94665 1.88232 5.33331V8.66665C1.88232 11.68 2.91566 12.1666 5.38232 12.1666H5.71566C6.05566 12.1666 6.44232 12.36 6.64899 12.6333L7.64899 13.9666C7.88232 14.2733 8.21566 14.2733 8.44899 13.9666L9.44899 12.6333C9.66899 12.34 10.0157 12.1666 10.3823 12.1666H10.7157C13.1023 12.1666 14.2157 11.0533 14.2157 8.66665V5.33331C14.2157 2.94665 13.1023 1.83331 10.7157 1.83331H5.38232Z" fill="white"/>
    <path d="M8.04899 8.00002C7.67566 8.00002 7.38232 7.70002 7.38232 7.33335C7.38232 6.96669 7.68232 6.66669 8.04899 6.66669C8.41566 6.66669 8.71566 6.96669 8.71566 7.33335C8.71566 7.70002 8.42232 8.00002 8.04899 8.00002Z" fill="white"/>
    <path d="M10.7155 8.00002C10.3422 8.00002 10.0488 7.70002 10.0488 7.33335C10.0488 6.96669 10.3488 6.66669 10.7155 6.66669C11.0822 6.66669 11.3822 6.96669 11.3822 7.33335C11.3822 7.70002 11.0888 8.00002 10.7155 8.00002Z" fill="white"/>
    <path d="M5.382 8.00002C5.00867 8.00002 4.71533 7.70002 4.71533 7.33335C4.71533 6.96669 5.01533 6.66669 5.382 6.66669C5.74867 6.66669 6.04867 6.96669 6.04867 7.33335C6.04867 7.70002 5.75533 8.00002 5.382 8.00002Z" fill="white"/>
</svg>
