<svg width="31" height="31" viewBox="0 0 31 31" fill="none" xmlns="http://www.w3.org/2000/svg">
    <rect x="0.695312" y="0.769562" width="30" height="30" rx="15" fill="#FFCF27"/>
    <path d="M19.8618 7.43623H11.5285C9.22848 7.43623 7.36182 9.29456 7.36182 11.5862V16.5696V17.4029C7.36182 19.6946 9.22848 21.5529 11.5285 21.5529H12.7785C13.0035 21.5529 13.3035 21.7029 13.4451 21.8862L14.6951 23.5446C15.2451 24.2779 16.1451 24.2779 16.6951 23.5446L17.9451 21.8862C18.1035 21.6779 18.3535 21.5529 18.6118 21.5529H19.8618C22.1618 21.5529 24.0285 19.6946 24.0285 17.4029V11.5862C24.0285 9.29456 22.1618 7.43623 19.8618 7.43623ZM16.5285 17.2279H11.5285C11.1868 17.2279 10.9035 16.9446 10.9035 16.6029C10.9035 16.2612 11.1868 15.9779 11.5285 15.9779H16.5285C16.8701 15.9779 17.1535 16.2612 17.1535 16.6029C17.1535 16.9446 16.8701 17.2279 16.5285 17.2279ZM19.8618 13.0612H11.5285C11.1868 13.0612 10.9035 12.7779 10.9035 12.4362C10.9035 12.0946 11.1868 11.8112 11.5285 11.8112H19.8618C20.2035 11.8112 20.4868 12.0946 20.4868 12.4362C20.4868 12.7779 20.2035 13.0612 19.8618 13.0612Z" fill="#F9F9F9"/>
</svg>
