<svg width="21" height="20" viewBox="0 0 21 20" fill="none" xmlns="http://www.w3.org/2000/svg">
    <path d="M13.4669 9.375H7.63354C7.29188 9.375 7.00854 9.09167 7.00854 8.75C7.00854 8.40833 7.29188 8.125 7.63354 8.125H13.4669C13.8085 8.125 14.0919 8.40833 14.0919 8.75C14.0919 9.09167 13.8085 9.375 13.4669 9.375Z" fill="#525252"/>
    <path d="M13.8837 18.6C13.6004 18.6 13.317 18.5166 13.0754 18.3583L9.52537 15.9916H6.38371C3.51704 15.9916 1.59204 14.0666 1.59204 11.2V6.19996C1.59204 3.33329 3.51704 1.40829 6.38371 1.40829H14.717C17.5837 1.40829 19.5087 3.33329 19.5087 6.19996V11.2C19.5087 13.85 17.8587 15.7 15.342 15.9583V17.1416C15.342 17.6833 15.0504 18.1749 14.5754 18.4249C14.3587 18.5416 14.117 18.6 13.8837 18.6ZM6.38371 2.64995C4.23371 2.64995 2.84204 4.04162 2.84204 6.19162V11.1916C2.84204 13.3416 4.23371 14.7333 6.38371 14.7333H9.71704C9.84204 14.7333 9.95872 14.7666 10.0671 14.8416L13.7754 17.3083C13.867 17.3666 13.9504 17.3416 13.992 17.3166C14.0337 17.2916 14.1004 17.2416 14.1004 17.1333V15.3583C14.1004 15.0166 14.3837 14.7333 14.7254 14.7333C16.8754 14.7333 18.267 13.3416 18.267 11.1916V6.19162C18.267 4.04162 16.8754 2.64995 14.7254 2.64995H6.38371Z" fill="#525252"/>
</svg>
