<svg width="19" height="19" viewBox="0 0 19 19" fill="none" xmlns="http://www.w3.org/2000/svg">
    <path d="M9.05029 17.8212C8.53279 17.8212 8.04529 17.5587 7.70029 17.1012L6.57529 15.6012C6.55279 15.5712 6.46279 15.5337 6.42529 15.5262H6.05029C2.92279 15.5262 0.987793 14.6787 0.987793 10.4637V6.71365C0.987793 3.39865 2.73529 1.65115 6.05029 1.65115H12.0503C15.3653 1.65115 17.1128 3.39865 17.1128 6.71365V10.4637C17.1128 13.7787 15.3653 15.5262 12.0503 15.5262H11.6753C11.6153 15.5262 11.5628 15.5562 11.5253 15.6012L10.4003 17.1012C10.0553 17.5587 9.56779 17.8212 9.05029 17.8212ZM6.05029 2.77615C3.36529 2.77615 2.11279 4.02865 2.11279 6.71365V10.4637C2.11279 13.8537 3.27529 14.4012 6.05029 14.4012H6.42529C6.80779 14.4012 7.24279 14.6187 7.47529 14.9262L8.60029 16.4262C8.86279 16.7712 9.23779 16.7712 9.50029 16.4262L10.6253 14.9262C10.8728 14.5962 11.2628 14.4012 11.6753 14.4012H12.0503C14.7353 14.4012 15.9878 13.1487 15.9878 10.4637V6.71365C15.9878 4.02865 14.7353 2.77615 12.0503 2.77615H6.05029Z" fill="#525252"/>
    <path d="M9.05029 9.71365C8.63029 9.71365 8.30029 9.37615 8.30029 8.96365C8.30029 8.55115 8.63779 8.21365 9.05029 8.21365C9.46279 8.21365 9.80029 8.55115 9.80029 8.96365C9.80029 9.37615 9.47029 9.71365 9.05029 9.71365Z" fill="#525252"/>
    <path d="M12.0503 9.71365C11.6303 9.71365 11.3003 9.37615 11.3003 8.96365C11.3003 8.55115 11.6378 8.21365 12.0503 8.21365C12.4628 8.21365 12.8003 8.55115 12.8003 8.96365C12.8003 9.37615 12.4703 9.71365 12.0503 9.71365Z" fill="#525252"/>
    <path d="M6.05029 9.71365C5.63029 9.71365 5.30029 9.37615 5.30029 8.96365C5.30029 8.55115 5.63779 8.21365 6.05029 8.21365C6.46279 8.21365 6.80029 8.55115 6.80029 8.96365C6.80029 9.37615 6.47029 9.71365 6.05029 9.71365Z" fill="#525252"/>
</svg>
