<svg width="21" height="20" viewBox="0 0 21 20" fill="none" xmlns="http://www.w3.org/2000/svg">
    <path d="M10.567 17.1083C8.62535 17.1083 6.68368 16.8 4.84201 16.1833C4.14201 15.9417 3.60868 15.45 3.37535 14.8083C3.13368 14.1667 3.21701 13.4583 3.60035 12.825L4.55868 11.2333C4.75868 10.9 4.94201 10.2333 4.94201 9.84165V7.43332C4.94201 4.33332 7.46701 1.80832 10.567 1.80832C13.667 1.80832 16.192 4.33332 16.192 7.43332V9.84165C16.192 10.225 16.3753 10.9 16.5753 11.2417L17.5253 12.825C17.8837 13.425 17.9503 14.15 17.7087 14.8083C17.467 15.4667 16.942 15.9667 16.2837 16.1833C14.4503 16.8 12.5087 17.1083 10.567 17.1083ZM10.567 3.05832C8.15868 3.05832 6.19201 5.01665 6.19201 7.43332V9.84165C6.19201 10.45 5.94201 11.35 5.63368 11.875L4.67535 13.4667C4.49201 13.775 4.44201 14.1 4.55035 14.375C4.65035 14.6583 4.90035 14.875 5.24201 14.9917C8.72535 16.1583 12.417 16.1583 15.9003 14.9917C16.2003 14.8917 16.4337 14.6667 16.542 14.3667C16.6503 14.0667 16.6253 13.7417 16.4587 13.4667L15.5003 11.875C15.1837 11.3333 14.942 10.4417 14.942 9.83332V7.43332C14.942 5.01665 12.9837 3.05832 10.567 3.05832Z" fill="#525252"/>
    <path d="M12.1169 3.28334C12.0586 3.28334 12.0002 3.275 11.9419 3.25834C11.7002 3.19167 11.4669 3.14167 11.2419 3.10834C10.5336 3.01667 9.85023 3.06667 9.20856 3.25834C8.97523 3.33334 8.72523 3.25834 8.56689 3.08334C8.40856 2.90834 8.35856 2.65834 8.45022 2.43334C8.79189 1.55834 9.62523 0.983337 10.5752 0.983337C11.5252 0.983337 12.3586 1.55 12.7002 2.43334C12.7836 2.65834 12.7419 2.90834 12.5836 3.08334C12.4586 3.21667 12.2836 3.28334 12.1169 3.28334Z" fill="#525252"/>
    <path d="M10.5669 19.0083C9.74189 19.0083 8.94189 18.675 8.35856 18.0917C7.77523 17.5083 7.44189 16.7083 7.44189 15.8833H8.69189C8.69189 16.375 8.89189 16.8583 9.24189 17.2083C9.59189 17.5583 10.0752 17.7583 10.5669 17.7583C11.6002 17.7583 12.4419 16.9167 12.4419 15.8833H13.6919C13.6919 17.6083 12.2919 19.0083 10.5669 19.0083Z" fill="#525252"/>
</svg>
