<svg width="9" height="9" viewBox="0 0 9 9" fill="none" xmlns="http://www.w3.org/2000/svg">
    <path d="M4.55021 4.71918C3.49354 4.71918 2.63354 3.85918 2.63354 2.80251C2.63354 1.74584 3.49354 0.885843 4.55021 0.885843C5.60688 0.885843 6.46688 1.74584 6.46688 2.80251C6.46688 3.85918 5.60688 4.71918 4.55021 4.71918ZM4.55021 1.38584C3.77021 1.38584 3.13354 2.02251 3.13354 2.80251C3.13354 3.58251 3.77021 4.21918 4.55021 4.21918C5.33021 4.21918 5.96688 3.58251 5.96688 2.80251C5.96688 2.02251 5.33021 1.38584 4.55021 1.38584Z" fill="#888888"/>
    <path d="M7.41368 8.05251C7.27701 8.05251 7.16368 7.93918 7.16368 7.80251C7.16368 6.65251 5.99034 5.71918 4.55034 5.71918C3.11034 5.71918 1.93701 6.65251 1.93701 7.80251C1.93701 7.93918 1.82368 8.05251 1.68701 8.05251C1.55035 8.05251 1.43701 7.93918 1.43701 7.80251C1.43701 6.37918 2.83368 5.21918 4.55034 5.21918C6.26701 5.21918 7.66368 6.37918 7.66368 7.80251C7.66368 7.93918 7.55034 8.05251 7.41368 8.05251Z" fill="#888888"/>
</svg>
