<svg width="19" height="19" viewBox="0 0 19 19" fill="none" xmlns="http://www.w3.org/2000/svg">
    <path d="M9.2876 14L9.2876 5C9.2876 4.6925 9.5426 4.4375 9.8501 4.4375C10.1576 4.4375 10.4126 4.6925 10.4126 5L10.4126 14C10.4126 14.3075 10.1576 14.5625 9.8501 14.5625C9.5426 14.5625 9.2876 14.3075 9.2876 14Z" fill="#757575"/>
    <path d="M4.7876 9.5C4.7876 9.1925 5.0426 8.9375 5.3501 8.9375L14.3501 8.9375C14.6576 8.9375 14.9126 9.1925 14.9126 9.5C14.9126 9.8075 14.6576 10.0625 14.3501 10.0625L5.3501 10.0625C5.0426 10.0625 4.7876 9.8075 4.7876 9.5Z" fill="#757575"/>
</svg>
