<svg width="25" height="25" viewBox="0 0 25 25" fill="none" xmlns="http://www.w3.org/2000/svg">
<path d="M12.8999 22.8497C6.9699 22.8497 2.1499 18.0297 2.1499 12.0997C2.1499 6.16973 6.9699 1.34973 12.8999 1.34973C18.8299 1.34973 23.6499 6.16973 23.6499 12.0997C23.6499 18.0297 18.8299 22.8497 12.8999 22.8497ZM12.8999 2.84973C7.7999 2.84973 3.6499 6.99973 3.6499 12.0997C3.6499 17.1997 7.7999 21.3497 12.8999 21.3497C17.9999 21.3497 22.1499 17.1997 22.1499 12.0997C22.1499 6.99973 17.9999 2.84973 12.8999 2.84973Z" fill="#F9F9F9"/>
<path d="M16.8999 12.8497H8.8999C8.4899 12.8497 8.1499 12.5097 8.1499 12.0997C8.1499 11.6897 8.4899 11.3497 8.8999 11.3497H16.8999C17.3099 11.3497 17.6499 11.6897 17.6499 12.0997C17.6499 12.5097 17.3099 12.8497 16.8999 12.8497Z" fill="#F9F9F9"/>
<path d="M12.8999 16.8497C12.4899 16.8497 12.1499 16.5097 12.1499 16.0997V8.09973C12.1499 7.68973 12.4899 7.34973 12.8999 7.34973C13.3099 7.34973 13.6499 7.68973 13.6499 8.09973V16.0997C13.6499 16.5097 13.3099 16.8497 12.8999 16.8497Z" fill="#F9F9F9"/>
</svg>
