<svg width="31" height="31" viewBox="0 0 31 31" fill="none" xmlns="http://www.w3.org/2000/svg">
    <rect x="0.695312" y="0.769562" width="30" height="30" rx="15" fill="url(#paint0_linear_1518_3140)"/>
    <path d="M24.0287 10.5279V18.5112C24.0287 20.8112 22.1621 22.6779 19.8621 22.6779H11.5287C11.1454 22.6779 10.7787 22.6279 10.4204 22.5279C9.90375 22.3862 9.73708 21.7279 10.1204 21.3446L18.9787 12.4862C19.1621 12.3029 19.4371 12.2612 19.6954 12.3112C19.9621 12.3612 20.2537 12.2862 20.4621 12.0862L22.6037 9.93623C23.3871 9.15289 24.0287 9.41123 24.0287 10.5279Z" fill="white"/>
    <path d="M17.8952 11.9029L9.17015 20.6279C8.77015 21.0279 8.10348 20.9279 7.83682 20.4279C7.52848 19.8612 7.36182 19.2029 7.36182 18.5112V10.5279C7.36182 9.41123 8.00348 9.1529 8.78682 9.93623L10.9368 12.0946C11.2618 12.4112 11.7951 12.4112 12.1201 12.0946L15.1035 9.1029C15.4285 8.7779 15.9618 8.7779 16.2868 9.1029L17.9035 10.7196C18.2201 11.0446 18.2201 11.5779 17.8952 11.9029Z" fill="white"/>
    <defs>
        <linearGradient id="paint0_linear_1518_3140" x1="4.21695" y1="0.769562" x2="30.6953" y2="32.33" gradientUnits="userSpaceOnUse">
            <stop stop-color="#FFC700"/>
            <stop offset="1" stop-color="#FF28EA"/>
        </linearGradient>
    </defs>
</svg>
