<svg width="21" height="21" viewBox="0 0 21 21" fill="none" xmlns="http://www.w3.org/2000/svg">
    <path d="M10.6398 11.255C7.99814 11.255 5.84814 9.10499 5.84814 6.46333C5.84814 3.82166 7.99814 1.67166 10.6398 1.67166C13.2815 1.67166 15.4315 3.82166 15.4315 6.46333C15.4315 9.10499 13.2815 11.255 10.6398 11.255ZM10.6398 2.92166C8.68981 2.92166 7.09814 4.51333 7.09814 6.46333C7.09814 8.41333 8.68981 10.005 10.6398 10.005C12.5898 10.005 14.1815 8.41333 14.1815 6.46333C14.1815 4.51333 12.5898 2.92166 10.6398 2.92166Z" fill="#525252"/>
    <path d="M3.48145 19.5883C3.13978 19.5883 2.85645 19.305 2.85645 18.9633C2.85645 15.405 6.34813 12.505 10.6398 12.505C10.9815 12.505 11.2648 12.7883 11.2648 13.13C11.2648 13.4717 10.9815 13.755 10.6398 13.755C7.0398 13.755 4.10645 16.0883 4.10645 18.9633C4.10645 19.305 3.82311 19.5883 3.48145 19.5883Z" fill="#525252"/>
    <path d="M15.8063 19.0884C13.9897 19.0884 12.5146 17.6133 12.5146 15.7967C12.5146 13.98 13.9897 12.505 15.8063 12.505C17.623 12.505 19.098 13.98 19.098 15.7967C19.098 17.6133 17.623 19.0884 15.8063 19.0884ZM15.8063 13.755C14.6813 13.755 13.7646 14.6717 13.7646 15.7967C13.7646 16.9217 14.6813 17.8384 15.8063 17.8384C16.9313 17.8384 17.848 16.9217 17.848 15.7967C17.848 14.6717 16.9313 13.755 15.8063 13.755Z" fill="#525252"/>
    <path d="M18.9729 19.5883C18.8145 19.5883 18.6562 19.53 18.5312 19.405L17.6979 18.5717C17.4562 18.33 17.4562 17.93 17.6979 17.6883C17.9395 17.4466 18.3396 17.4466 18.5812 17.6883L19.4146 18.5216C19.6562 18.7633 19.6562 19.1633 19.4146 19.405C19.2896 19.53 19.1312 19.5883 18.9729 19.5883Z" fill="#525252"/>
</svg>
