<svg width="13" height="12" viewBox="0 0 13 12" fill="none" xmlns="http://www.w3.org/2000/svg">
    <path d="M6.30029 10.875C3.47529 10.875 1.17529 8.575 1.17529 5.75C1.17529 2.925 3.47529 0.625 6.30029 0.625C9.12529 0.625 11.4253 2.925 11.4253 5.75C11.4253 8.575 9.12529 10.875 6.30029 10.875ZM6.30029 1.375C3.88529 1.375 1.92529 3.34 1.92529 5.75C1.92529 8.16 3.88529 10.125 6.30029 10.125C8.71529 10.125 10.6753 8.16 10.6753 5.75C10.6753 3.34 8.71529 1.375 6.30029 1.375Z" fill="#888888"/>
    <path d="M11.5503 11.375C11.4553 11.375 11.3603 11.34 11.2853 11.265L10.2853 10.265C10.1403 10.12 10.1403 9.88 10.2853 9.735C10.4303 9.59 10.6703 9.59 10.8153 9.735L11.8153 10.735C11.9603 10.88 11.9603 11.12 11.8153 11.265C11.7403 11.34 11.6453 11.375 11.5503 11.375Z" fill="#888888"/>
</svg>
