<svg width="21" height="20" viewBox="0 0 21 20" fill="none" xmlns="http://www.w3.org/2000/svg">
    <path d="M10.8501 12.5C12.2308 12.5 13.3501 11.3807 13.3501 10C13.3501 8.61929 12.2308 7.5 10.8501 7.5C9.46939 7.5 8.3501 8.61929 8.3501 10C8.3501 11.3807 9.46939 12.5 10.8501 12.5Z" stroke="#525252" stroke-width="1.5" stroke-miterlimit="10" stroke-linecap="round" stroke-linejoin="round"/>
    <path d="M2.5166 10.7333V9.26666C2.5166 8.4 3.22493 7.68333 4.09993 7.68333C5.60827 7.68333 6.22493 6.61666 5.4666 5.30833C5.03327 4.55833 5.2916 3.58333 6.04993 3.15L7.4916 2.325C8.14993 1.93333 8.99993 2.16666 9.3916 2.825L9.48327 2.98333C10.2333 4.29166 11.4666 4.29166 12.2249 2.98333L12.3166 2.825C12.7083 2.16666 13.5583 1.93333 14.2166 2.325L15.6583 3.15C16.4166 3.58333 16.6749 4.55833 16.2416 5.30833C15.4833 6.61666 16.0999 7.68333 17.6083 7.68333C18.4749 7.68333 19.1916 8.39166 19.1916 9.26666V10.7333C19.1916 11.6 18.4833 12.3167 17.6083 12.3167C16.0999 12.3167 15.4833 13.3833 16.2416 14.6917C16.6749 15.45 16.4166 16.4167 15.6583 16.85L14.2166 17.675C13.5583 18.0667 12.7083 17.8333 12.3166 17.175L12.2249 17.0167C11.4749 15.7083 10.2416 15.7083 9.48327 17.0167L9.3916 17.175C8.99993 17.8333 8.14993 18.0667 7.4916 17.675L6.04993 16.85C5.2916 16.4167 5.03327 15.4417 5.4666 14.6917C6.22493 13.3833 5.60827 12.3167 4.09993 12.3167C3.22493 12.3167 2.5166 11.6 2.5166 10.7333Z" stroke="#525252" stroke-width="1.5" stroke-miterlimit="10" stroke-linecap="round" stroke-linejoin="round"/>
</svg>
