<svg width="19" height="19" viewBox="0 0 19 19" fill="none" xmlns="http://www.w3.org/2000/svg">
    <g clip-path="url(#clip0_806_2202)">
        <path d="M15.0418 4.88526C14.9279 4.82639 14.817 4.76186 14.7096 4.6919C14.3971 4.48535 14.1107 4.24196 13.8563 3.96698C13.22 3.2389 12.9824 2.50026 12.8948 1.98312H12.8983C12.8252 1.55386 12.8554 1.27612 12.86 1.27612H9.96174V12.4832C9.96174 12.6337 9.96174 12.7824 9.95541 12.9294C9.95541 12.9476 9.95365 12.9645 9.9526 12.9842C9.9526 12.9923 9.9526 13.0007 9.95084 13.0092C9.95084 13.0113 9.95084 13.0134 9.95084 13.0155C9.92029 13.4176 9.79139 13.806 9.57548 14.1466C9.35957 14.4872 9.06327 14.7696 8.71264 14.9688C8.3472 15.1767 7.93389 15.2857 7.51346 15.2852C6.16311 15.2852 5.06869 14.1841 5.06869 12.8242C5.06869 11.4644 6.16311 10.3633 7.51346 10.3633C7.76907 10.3631 8.02311 10.4033 8.26615 10.4825L8.26967 7.53147C7.53187 7.43617 6.78232 7.49481 6.06831 7.70368C5.35431 7.91256 4.69134 8.26714 4.12123 8.74507C3.62168 9.17911 3.20171 9.69699 2.88022 10.2754C2.75787 10.4864 2.29627 11.334 2.24037 12.7096C2.20522 13.4905 2.43971 14.2994 2.5515 14.6337V14.6408C2.62182 14.8376 2.89428 15.5095 3.3383 16.0758C3.69635 16.5302 4.11936 16.9292 4.59373 17.2603V17.2532L4.60076 17.2603C6.00385 18.2137 7.55951 18.1511 7.55951 18.1511C7.82881 18.1402 8.73092 18.1511 9.75537 17.6656C10.8916 17.1274 11.5385 16.3255 11.5385 16.3255C11.9518 15.8463 12.2804 15.3003 12.5102 14.7107C12.7725 14.0213 12.86 13.1944 12.86 12.864V6.91835C12.8952 6.93944 13.3635 7.24917 13.3635 7.24917C13.3635 7.24917 14.0381 7.68159 15.0907 7.96319C15.8458 8.16358 16.8633 8.20577 16.8633 8.20577V5.32858C16.5068 5.36726 15.7829 5.25476 15.0418 4.88526Z" fill="#888888"/>
    </g>
    <defs>
        <clipPath id="clip0_806_2202">
            <rect width="18" height="18" fill="white" transform="translate(0.550293 0.713623)"/>
        </clipPath>
    </defs>
</svg>
