<svg width="21" height="21" viewBox="0 0 21 21" fill="none" xmlns="http://www.w3.org/2000/svg">
    <path d="M13.6314 11.4717C10.9314 11.4717 8.73145 9.27168 8.73145 6.57168C8.73145 3.87168 10.9314 1.67168 13.6314 1.67168C16.3314 1.67168 18.5315 3.87168 18.5315 6.57168C18.5315 9.27168 16.3314 11.4717 13.6314 11.4717ZM13.6314 2.92168C11.6231 2.92168 9.98145 4.55501 9.98145 6.57168C9.98145 8.58835 11.6148 10.2217 13.6314 10.2217C15.6481 10.2217 17.2815 8.58835 17.2815 6.57168C17.2815 4.55501 15.6398 2.92168 13.6314 2.92168Z" fill="#525252"/>
    <path d="M5.9397 17.455C4.18137 17.455 2.74805 16.0217 2.74805 14.2634C2.74805 12.505 4.18137 11.0717 5.9397 11.0717C7.69804 11.0717 9.13138 12.505 9.13138 14.2634C9.13138 16.0217 7.69804 17.455 5.9397 17.455ZM5.9397 12.3217C4.87304 12.3217 3.99805 13.1884 3.99805 14.2634C3.99805 15.33 4.8647 16.205 5.9397 16.205C7.00637 16.205 7.88138 15.3384 7.88138 14.2634C7.88138 13.1967 7.00637 12.3217 5.9397 12.3217Z" fill="#525252"/>
    <path d="M14.4898 19.5883C12.9648 19.5883 11.7314 18.3467 11.7314 16.83C11.7314 15.305 12.9731 14.0717 14.4898 14.0717C16.0064 14.0717 17.2481 15.3133 17.2481 16.83C17.2481 18.3467 16.0064 19.5883 14.4898 19.5883ZM14.4898 15.3133C13.6564 15.3133 12.9814 15.9883 12.9814 16.8217C12.9814 17.655 13.6564 18.33 14.4898 18.33C15.3231 18.33 15.9981 17.655 15.9981 16.8217C15.9981 15.9967 15.3231 15.3133 14.4898 15.3133Z" fill="#525252"/>
</svg>
