<svg width="31" height="31" viewBox="0 0 31 31" fill="none" xmlns="http://www.w3.org/2000/svg">
    <rect x="0.695312" y="0.769562" width="30" height="30" rx="15" fill="#3397F4"/>
    <path d="M19.6535 8.73623V7.43623C19.6535 7.09456 19.3702 6.81123 19.0285 6.81123C18.6868 6.81123 18.4035 7.09456 18.4035 7.43623V8.68623H12.9868V7.43623C12.9868 7.09456 12.7035 6.81123 12.3618 6.81123C12.0202 6.81123 11.7368 7.09456 11.7368 7.43623V8.73623C9.48684 8.94456 8.39518 10.2862 8.22851 12.2779C8.21184 12.5196 8.41184 12.7196 8.64518 12.7196H22.7452C22.9868 12.7196 23.1868 12.5112 23.1618 12.2779C22.9952 10.2862 21.9035 8.94456 19.6535 8.73623Z" fill="white"/>
    <path d="M22.362 13.9696H9.02865C8.57031 13.9696 8.19531 14.3446 8.19531 14.8029V19.9362C8.19531 22.4362 9.44531 24.1029 12.362 24.1029H19.0286C21.9453 24.1029 23.1953 22.4362 23.1953 19.9362V14.8029C23.1953 14.3446 22.8203 13.9696 22.362 13.9696ZM13.3703 20.9446C13.3286 20.9779 13.287 21.0196 13.2453 21.0446C13.1953 21.0779 13.1453 21.1029 13.0953 21.1196C13.0453 21.1446 12.9953 21.1612 12.9453 21.1696C12.887 21.1779 12.837 21.1862 12.7786 21.1862C12.6703 21.1862 12.562 21.1612 12.462 21.1196C12.3536 21.0779 12.2703 21.0196 12.187 20.9446C12.037 20.7862 11.9453 20.5696 11.9453 20.3529C11.9453 20.1362 12.037 19.9196 12.187 19.7612C12.2703 19.6862 12.3536 19.6279 12.462 19.5862C12.612 19.5196 12.7786 19.5029 12.9453 19.5362C12.9953 19.5446 13.0453 19.5612 13.0953 19.5862C13.1453 19.6029 13.1953 19.6279 13.2453 19.6612C13.287 19.6946 13.3286 19.7279 13.3703 19.7612C13.5203 19.9196 13.612 20.1362 13.612 20.3529C13.612 20.5696 13.5203 20.7862 13.3703 20.9446ZM13.3703 18.0279C13.212 18.1779 12.9953 18.2696 12.7786 18.2696C12.562 18.2696 12.3453 18.1779 12.187 18.0279C12.037 17.8696 11.9453 17.6529 11.9453 17.4362C11.9453 17.2196 12.037 17.0029 12.187 16.8446C12.4203 16.6112 12.787 16.5362 13.0953 16.6696C13.2036 16.7112 13.2953 16.7696 13.3703 16.8446C13.5203 17.0029 13.612 17.2196 13.612 17.4362C13.612 17.6529 13.5203 17.8696 13.3703 18.0279ZM16.287 20.9446C16.1286 21.0946 15.912 21.1862 15.6953 21.1862C15.4786 21.1862 15.262 21.0946 15.1036 20.9446C14.9536 20.7862 14.862 20.5696 14.862 20.3529C14.862 20.1362 14.9536 19.9196 15.1036 19.7612C15.412 19.4529 15.9786 19.4529 16.287 19.7612C16.437 19.9196 16.5286 20.1362 16.5286 20.3529C16.5286 20.5696 16.437 20.7862 16.287 20.9446ZM16.287 18.0279C16.2453 18.0612 16.2036 18.0946 16.162 18.1279C16.112 18.1612 16.062 18.1862 16.012 18.2029C15.962 18.2279 15.912 18.2446 15.862 18.2529C15.8036 18.2612 15.7536 18.2696 15.6953 18.2696C15.4786 18.2696 15.262 18.1779 15.1036 18.0279C14.9536 17.8696 14.862 17.6529 14.862 17.4362C14.862 17.2196 14.9536 17.0029 15.1036 16.8446C15.1786 16.7696 15.2703 16.7112 15.3786 16.6696C15.687 16.5362 16.0536 16.6112 16.287 16.8446C16.437 17.0029 16.5286 17.2196 16.5286 17.4362C16.5286 17.6529 16.437 17.8696 16.287 18.0279ZM19.2036 20.9446C19.0453 21.0946 18.8286 21.1862 18.612 21.1862C18.3953 21.1862 18.1786 21.0946 18.0203 20.9446C17.8703 20.7862 17.7786 20.5696 17.7786 20.3529C17.7786 20.1362 17.8703 19.9196 18.0203 19.7612C18.3286 19.4529 18.8953 19.4529 19.2036 19.7612C19.3536 19.9196 19.4453 20.1362 19.4453 20.3529C19.4453 20.5696 19.3536 20.7862 19.2036 20.9446ZM19.2036 18.0279C19.162 18.0612 19.1203 18.0946 19.0786 18.1279C19.0286 18.1612 18.9786 18.1862 18.9286 18.2029C18.8786 18.2279 18.8286 18.2446 18.7786 18.2529C18.7203 18.2612 18.662 18.2696 18.612 18.2696C18.3953 18.2696 18.1786 18.1779 18.0203 18.0279C17.8703 17.8696 17.7786 17.6529 17.7786 17.4362C17.7786 17.2196 17.8703 17.0029 18.0203 16.8446C18.1036 16.7696 18.187 16.7112 18.2953 16.6696C18.4453 16.6029 18.612 16.5862 18.7786 16.6196C18.8286 16.6279 18.8786 16.6446 18.9286 16.6696C18.9786 16.6862 19.0286 16.7112 19.0786 16.7446C19.1203 16.7779 19.162 16.8112 19.2036 16.8446C19.3536 17.0029 19.4453 17.2196 19.4453 17.4362C19.4453 17.6529 19.3536 17.8696 19.2036 18.0279Z" fill="white"/>
</svg>
