<svg width="17" height="17" viewBox="0 0 17 17" fill="none" xmlns="http://www.w3.org/2000/svg">
    <path d="M14.9136 7.92956L14.007 6.87623C13.8336 6.67623 13.6936 6.30289 13.6936 6.03623V4.90289C13.6936 4.19623 13.1136 3.61623 12.407 3.61623H11.2736C11.0136 3.61623 10.6336 3.47623 10.4336 3.30289L9.38029 2.39623C8.92029 2.00289 8.16695 2.00289 7.70029 2.39623L6.65362 3.30956C6.45362 3.47623 6.07362 3.61623 5.81362 3.61623H4.66029C3.95362 3.61623 3.37362 4.19623 3.37362 4.90289V6.04289C3.37362 6.30289 3.23362 6.67623 3.06695 6.87623L2.16695 7.93623C1.78029 8.39623 1.78029 9.14289 2.16695 9.60289L3.06695 10.6629C3.23362 10.8629 3.37362 11.2362 3.37362 11.4962V12.6362C3.37362 13.3429 3.95362 13.9229 4.66029 13.9229H5.81362C6.07362 13.9229 6.45362 14.0629 6.65362 14.2362L7.70695 15.1429C8.16695 15.5362 8.92029 15.5362 9.38695 15.1429L10.4403 14.2362C10.6403 14.0629 11.0136 13.9229 11.2803 13.9229H12.4136C13.1203 13.9229 13.7003 13.3429 13.7003 12.6362V11.5029C13.7003 11.2429 13.8403 10.8629 14.0136 10.6629L14.9203 9.60956C15.307 9.14956 15.307 8.38956 14.9136 7.92956ZM11.3136 7.50956L8.09362 10.7296C8.00029 10.8229 7.87362 10.8762 7.74029 10.8762C7.60695 10.8762 7.48029 10.8229 7.38695 10.7296L5.77362 9.11623C5.58029 8.92289 5.58029 8.60289 5.77362 8.40956C5.96695 8.21623 6.28695 8.21623 6.48029 8.40956L7.74029 9.66956L10.607 6.80289C10.8003 6.60956 11.1203 6.60956 11.3136 6.80289C11.507 6.99623 11.507 7.31623 11.3136 7.50956Z" fill="#007AFF"/>
</svg>
