<svg width="25" height="25" viewBox="0 0 25 25" fill="none" xmlns="http://www.w3.org/2000/svg">
<path d="M15.3999 22.8497H9.3999C3.9699 22.8497 1.6499 20.5297 1.6499 15.0997V9.09973C1.6499 3.66973 3.9699 1.34973 9.3999 1.34973H15.3999C20.8299 1.34973 23.1499 3.66973 23.1499 9.09973V15.0997C23.1499 20.5297 20.8299 22.8497 15.3999 22.8497ZM9.3999 2.84973C4.7899 2.84973 3.1499 4.48973 3.1499 9.09973V15.0997C3.1499 19.7097 4.7899 21.3497 9.3999 21.3497H15.3999C20.0099 21.3497 21.6499 19.7097 21.6499 15.0997V9.09973C21.6499 4.48973 20.0099 2.84973 15.3999 2.84973H9.3999Z" fill="#525252"/>
<path d="M12.3999 22.8497C11.9899 22.8497 11.6499 22.5097 11.6499 22.0997V2.09973C11.6499 1.68973 11.9899 1.34973 12.3999 1.34973C12.8099 1.34973 13.1499 1.68973 13.1499 2.09973V22.0997C13.1499 22.5097 12.8099 22.8497 12.3999 22.8497Z" fill="#525252"/>
<path d="M22.3999 12.8497H2.3999C1.9899 12.8497 1.6499 12.5097 1.6499 12.0997C1.6499 11.6897 1.9899 11.3497 2.3999 11.3497H22.3999C22.8099 11.3497 23.1499 11.6897 23.1499 12.0997C23.1499 12.5097 22.8099 12.8497 22.3999 12.8497Z" fill="#525252"/>
</svg>
